<svg width="23" height="24" viewBox="0 0 23 24" fill="none" xmlns="http://www.w3.org/2000/svg">
<path d="M6.73047 2.73242C5.97937 2.73242 5.25903 3.0308 4.72792 3.5619C4.19681 4.09301 3.89844 4.81335 3.89844 5.56445V18.7806C3.89844 19.5317 4.19681 20.252 4.72792 20.7831C5.25903 21.3143 5.97937 21.6126 6.73047 21.6126H16.1706C16.9217 21.6126 17.642 21.3143 18.1731 20.7831C18.7042 20.252 19.0026 19.5317 19.0026 18.7806V17.8366C19.0026 17.3152 18.58 16.8926 18.0586 16.8926C17.5372 16.8926 17.1146 17.3152 17.1146 17.8366V18.7806C17.1146 19.031 17.0151 19.2711 16.8381 19.4481C16.6611 19.6252 16.4209 19.7246 16.1706 19.7246H6.73047C6.4801 19.7246 6.23999 19.6252 6.06295 19.4481C5.88592 19.2711 5.78646 19.031 5.78646 18.7806V5.56445C5.78646 5.31409 5.88592 5.07397 6.06295 4.89694C6.23999 4.7199 6.4801 4.62044 6.73047 4.62044H16.1706C16.4209 4.62044 16.6611 4.7199 16.8381 4.89694C17.0151 5.07397 17.1146 5.31409 17.1146 5.56445V6.50846C17.1146 7.02983 17.5372 7.45247 18.0586 7.45247C18.58 7.45247 19.0026 7.02983 19.0026 6.50846V5.56445C19.0026 4.81335 18.7042 4.09301 18.1731 3.5619C17.642 3.0308 16.9217 2.73242 16.1706 2.73242H6.73047Z" fill="#F87171"/>
<path d="M15.8941 8.67298C15.5254 8.30432 14.9277 8.30432 14.559 8.67298C14.1904 9.04164 14.1904 9.63935 14.559 10.008L15.7796 11.2285H11.4505C10.9292 11.2285 10.5065 11.6512 10.5065 12.1725C10.5065 12.6939 10.9292 13.1165 11.4505 13.1165H15.7796L14.559 14.337C14.1904 14.7057 14.1904 15.3034 14.559 15.6721C14.9277 16.0407 15.5254 16.0407 15.8941 15.6721L18.7261 12.84C19.0948 12.4714 19.0948 11.8737 18.7261 11.505L15.8941 8.67298Z" fill="#F87171"/>
</svg>
